<svg width="106" height="40" viewBox="0 0 106 40" fill="none" xmlns="http://www.w3.org/2000/svg">
<path d="M9.09809 28.9091C7.27273 28.9091 5.78512 28.6185 4.63529 28.0373C3.48545 27.4561 2.58714 26.7194 1.94035 25.8273C1.30794 24.9353 0.855192 24.0094 0.582105 23.0497C0.309019 22.0765 0.14373 21.1912 0.0862378 20.3937C0.0287459 19.5962 0 19.015 0 18.6501V6.36364H5.95041V16.7037C5.95041 17.2038 5.97916 17.8459 6.03665 18.6298C6.09414 19.4003 6.2738 20.1775 6.57564 20.9614C6.87747 21.7454 7.36615 22.4009 8.04168 22.9281C8.73158 23.4552 9.70176 23.7188 10.9522 23.7188C11.4553 23.7188 11.9942 23.6444 12.5692 23.4957C13.1441 23.3471 13.6831 23.0632 14.1861 22.6442C14.6892 22.2117 15.0988 21.5832 15.415 20.7587C15.7456 19.9206 15.9109 18.8258 15.9109 17.4742L19.2742 18.9745C19.2742 20.7046 18.9005 22.3266 18.1531 23.8404C17.4057 25.3543 16.2774 26.5775 14.7682 27.5101C13.2734 28.4428 11.3834 28.9091 9.09809 28.9091Z" fill="white"/>
<path d="M16.6439 28.7273V21.002H15.9109V6.36364H21.8182V28.7273H16.6439Z" fill="white"/>
<path d="M64.3708 28.9091C62.5454 28.9091 61.0578 28.6185 59.908 28.0373C58.7582 27.4561 57.8599 26.7194 57.2131 25.8273C56.5807 24.9353 56.1279 24.0094 55.8548 23.0497C55.5817 22.0765 55.4165 21.1912 55.359 20.3937C55.3015 19.5962 55.2727 19.015 55.2727 18.6501V6.36364H61.2231V16.7037C61.2231 17.2038 61.2519 17.8459 61.3094 18.6298C61.3669 19.4003 61.5465 20.1775 61.8484 20.9614C62.1502 21.7454 62.6389 22.4009 63.3144 22.9281C64.0043 23.4552 64.9745 23.7188 66.2249 23.7188C66.728 23.7188 67.267 23.6444 67.8419 23.4957C68.4168 23.3471 68.9558 23.0632 69.4589 22.6442C69.9619 22.2117 70.3715 21.5832 70.6877 20.7587C71.0183 19.9206 71.1836 18.8258 71.1836 17.4742L74.5469 18.9745C74.5469 20.7046 74.1732 22.3266 73.4258 23.8404C72.6784 25.3543 71.5501 26.5775 70.041 27.5101C68.5462 28.4428 66.6561 28.9091 64.3708 28.9091ZM71.9166 28.7273V21.002H71.1836V6.36364H77.0909V28.7273H71.9166Z" fill="white"/>
<path d="M32.3825 6.36341L25.1124 6.36341L34.5057 17.5346L25.1178 28.7248H32.3915L41.7878 17.5372L32.3825 6.36341Z" fill="#FE4200"/>
<path d="M42.4824 18.3633L48.2468 25.2186L48.254 25.2082L51.2082 28.7158L43.9075 28.7158L38.8395 22.6886L42.4824 18.3633Z" fill="#FE4200"/>
<path d="M42.4849 16.7081L38.8349 12.3743L49.2032 9.145e-06H56.4733L42.4849 16.7081Z" fill="#FE4200"/>
<path d="M98.8124 6.3564H105.273L91.3512 40H84.709L98.8124 6.3564Z" fill="white"/>
<path d="M92.0576 19.8075L86.4378 6.3564H79.8865L88.8075 27.4994L92.0576 19.8075Z" fill="white"/>
</svg>
