<svg width="1024" height="1024" viewBox="0 0 1024 1024" fill="none" xmlns="http://www.w3.org/2000/svg">
<rect width="1024" height="1024" rx="512" fill="#FF7400"/>
<path fill-rule="evenodd" clip-rule="evenodd" d="M225.152 372.736V431.72C225.051 433.315 225 434.923 225 436.543V711.768C225 753.229 258.611 786.839 300.071 786.839H724.362C765.822 786.839 799.433 753.229 799.433 711.768V649.207H731.627C686.835 649.207 650.523 612.895 650.523 568.103C650.523 523.311 686.835 487 731.627 487H799.433V436.545C799.433 395.084 765.822 361.473 724.362 361.473H723.141L706.657 291.91C699.398 261.278 670.324 240.956 639.063 244.665L305.601 284.227C262.738 289.312 229.346 323.81 225.66 366.815L225.152 372.736ZM642.971 277.609L309.509 317.171C282.274 320.402 261.056 342.322 258.713 369.648L258.328 374.139C270.264 366.139 284.622 361.473 300.07 361.473H689.047L674.376 299.56C671.004 285.327 657.495 275.886 642.971 277.609ZM504.567 577.016L619.7 443.751C622.667 440.324 620.228 435 615.692 435H547.652C546.112 435 544.648 435.669 543.642 436.834L463.787 529.401L504.567 577.016ZM388.054 714C389.59 714 391.05 713.329 392.052 712.162L495.724 591.451C496.879 590.106 497.25 588.325 496.837 586.699L496.905 586.62L497.06 586.753C497.087 586.616 497.12 586.481 497.158 586.346L496.82 586.636C496.621 585.891 496.255 585.18 495.725 584.562L392.052 463.838C391.05 462.671 389.59 462 388.054 462H320.284C315.774 462 313.345 467.302 316.286 470.726L414.042 584.562C414.583 585.191 414.951 585.915 415.148 586.675C414.944 587.521 414.951 588.407 415.17 589.251C414.979 590.042 414.603 590.798 414.042 591.451L316.287 705.273C313.346 708.698 315.775 714 320.285 714H388.054ZM523.839 714C522.291 714 520.821 713.324 519.815 712.15L463.06 645.941L504.148 598.137L595.964 705.268C598.906 708.701 596.464 714 591.939 714H523.839Z" fill="white"/>
<path fill-rule="evenodd" clip-rule="evenodd" d="M810.2 520H733.825C706.308 520 684 542.307 684 569.824C684 597.341 706.308 619.649 733.825 619.649H810.2C820.14 619.649 828.198 611.591 828.198 601.651V537.998C828.198 528.058 820.14 520 810.2 520ZM735.125 594.81C749.432 594.81 761.03 583.212 761.03 568.905C761.03 554.598 749.432 543 735.125 543C720.818 543 709.22 554.598 709.22 568.905C709.22 583.212 720.818 594.81 735.125 594.81Z" fill="white"/>
</svg>
